# xmcd
#
# Track frame offsets:
#	150
#	13830
#	27987
#	44272
#	60805
#	80825
#	99780
#	117340
#	136652
#	157657
#	177245
#	190247
#
# Disc length: 2817 seconds
#
# Revision: 1
# Processed by: cddbd v1.5.2PL0 Copyright (c) Steve Scherf et al.
# Submitted via: audiograbber 1.83.01
#
DISCID=890aff0c
DTITLE=Jeff Finlin - Angels In Disguise
DYEAR=2006
DGENRE=Rock
TTITLE0=Better Than This
TTITLE1=American Dream #109
TTITLE2=Bringing My Love
TTITLE3=The Long Lonesome Death Of The Traveling Man
TTITLE4=Postcard From Topeka
TTITLE5=Soho Rain
TTITLE6=Angel In Disguise
TTITLE7=Forever Evergreen
TTITLE8=Don't Know Why
TTITLE9=Break You Down
TTITLE10=Moon Man
TTITLE11=Nothing's Enough
EXTD=
EXTT0=
EXTT1=
EXTT2=
EXTT3=
EXTT4=
EXTT5=
EXTT6=
EXTT7=
EXTT8=
EXTT9=
EXTT10=
EXTT11=
PLAYORDER=
